<svg width="80" height="80" xmlns="http://www.w3.org/2000/svg"><path
    d="M39.98 0C19.71 0 0 16.232 0 39.98c13.513-4.118 5.437 20.23 5.437 20.23S16.312 39.1 3.57 36.382c0 0 1.895-9.115 8.476-11.874 0 0-2.13 9.355 6.437 14.393-11.754-12.274 1.959-25.228 8.676-24.228 0 0 9.675-8.316 9.955-.464 2.087-.448 5.357-1.691 7.156.36 1.631 2.422 2.187 4.797 2.979 5.637 1.075 1.527-1.528 1.495-1.528 1.495 2.6.04 6.917.744 13.314 3.998 1.151.691 1.471 1.16 1.651 3.638 5.957 1.491 7.356 1.94 12.994 4.478 1.283.74.061 5.157-1.428 6.837-1.047-4.318-.611-3.979-1.555-2.991-1.691-4.838-.572-1.463-.987 1.811 1.21-1.071.979-.94 2.007 2.183-.48 2.627-2.451 4.678-4.238 7.196-.119-1.191.264-2.342.028-2.338-2.275.024-3.938-1.304-5.797-2.12-8.516-1.954-12.034 5.718-2.702 7.277 2.234.17 2.458-1.987 5.557.576l2.59-2.487-.743 2.547c.995 2.267-2.907 5.117-3.738 7.196-.322.828-.268 2.359-.344 3.642-1.291-1.503-1.827-5.837-2.302-2.05-.816-.736-.628-5.158-1.416-1.684-.39-1.787-8.596-6.197-12.794-4.078-1.415-12.074-7.796-14.433-9.675-24.228l-1.667 2.207c-.351-2.035 1.487-9.355 4.678-12.354l-4.078-.64s3.106-2.226 6.557-.927c-4.278-2.315-8.316-.225-9.876 1.727l4.558.912c-3.226 6.237-3.85 8.995-3.506 17.191l2.303-3.806c1.315 6.917 14.553 16.552.092 40.38 2.183-8.396-2.495-13.553-2.495-13.553s3.446 10.794-4.878 15.752c0 0 3.667 2.007 12.154 2.007 22.11 0 39.94-17.871 39.94-39.94 0-22.11-17.87-39.98-39.94-39.98L39.98 0zM29.266 25.427s-6.557.152-8.836 3.555c3.286 4.797 7.476 3.294 7.476 3.294-4.637-1.623-5.557-3.366-5.557-3.366s2.627-1.56 4.718-1.156c0 0 .76 2.075 1.859 3.23 0 0-.66-4.277.298-5.557h.041zm19.27 4.158s4.198 2.243 6.677 1.963c2.459.848 4.757 1.476.74-.663 0 0-.143-1.328-.904-2.375-2.187-.138-4.278 1.355-6.517 1.08l.004-.005z"
    fill="currentColor"
  /></svg>
