<svg width="25" height="28" fill="none" xmlns="http://www.w3.org/2000/svg"><g clip-path="url(#a)"><path d="M24.5 5.25a1.75 1.75 0 0 0-1.75-1.75h-21a1.75 1.75 0 1 0 0 3.5h21a1.75 1.75 0 0 0 1.75-1.75zm0 8.75a1.75 1.75 0 0 0-1.75-1.75h-21C.782 12.25 0 13.032 0 14s.782 1.75 1.75 1.75h21A1.75 1.75 0 0 0 24.5 14zM1.75 24.5h21a1.75 1.75 0 1 0 0-3.5h-21C.782 21 0 21.782 0 22.75s.782 1.75 1.75 1.75z" fill="#fff"/></g><defs><clipPath id="a"><path fill="#fff" transform="matrix(-1 0 0 1 24.5 0)" d="M0 0h24.5v28H0z"/></clipPath></defs></svg>