<svg version="1.1" xmlns="http://www.w3.org/2000/svg">
<symbol id="logo" viewBox="0 0 20 20">
 <path d="m10 0c-5.07 0-10 4.06-10 10 3.38-1.03 1.36 5.06 1.36 5.06s2.72-5.28-0.467-5.96c0 0 0.474-2.28 2.12-2.97 0 0-0.533 2.34 1.61 3.6-2.94-3.07 0.49-6.31 2.17-6.06 0 0 2.42-2.08 2.49-0.116 0.522-0.112 1.34-0.423 1.79 0.0899 0.408 0.606 0.547 1.2 0.745 1.41 0.269 0.382-0.382 0.374-0.382 0.374 0.65 0.01 1.73 0.186 3.33 1 0.288 0.173 0.368 0.29 0.413 0.91 1.49 0.373 1.84 0.485 3.25 1.12 0.321 0.185 0.0155 1.29-0.357 1.71-0.262-1.08-0.153-0.995-0.389-0.748-0.423-1.21-0.143-0.366-0.247 0.453 0.303-0.268 0.245-0.235 0.502 0.546-0.12 0.657-0.613 1.17-1.06 1.8-0.0296-0.298 0.0662-0.586 0.0072-0.585-0.569 6e-3 -0.985-0.326-1.45-0.53-2.13-0.489-3.01 1.43-0.676 1.82 0.559 0.0423 0.615-0.497 1.39 0.144l0.648-0.622-0.186 0.637c0.249 0.567-0.727 1.28-0.935 1.8-0.0805 0.207-0.0671 0.59-0.0859 0.911-0.323-0.376-0.457-1.46-0.576-0.513-0.204-0.184-0.157-1.29-0.354-0.421-0.0978-0.447-2.15-1.55-3.2-1.02-0.354-3.02-1.95-3.61-2.42-6.06l-0.417 0.552c-0.0879-0.509 0.372-2.34 1.17-3.09l-1.02-0.16s0.777-0.557 1.64-0.232c-1.07-0.579-2.08-0.0563-2.47 0.432l1.14 0.228c-0.807 1.56-0.963 2.25-0.877 4.3l0.576-0.952c0.329 1.73 3.64 4.14 0.023 10.1 0.546-2.1-0.624-3.39-0.624-3.39 6.42e-5 4e-5 0.862 2.7-1.22 3.94 0 0 0.917 0.502 3.04 0.502 5.53-4e-5 9.99-4.47 9.99-9.99-1e-6 -5.53-4.47-10-9.99-10zm-2.68 6.36s-1.64 0.038-2.21 0.889c0.822 1.2 1.87 0.824 1.87 0.824-1.16-0.406-1.39-0.842-1.39-0.842s0.657-0.39 1.18-0.289c0 0 0.19 0.519 0.465 0.808 0 0-0.165-1.07 0.0747-1.39zm4.82 1.04s1.05 0.561 1.67 0.491c0.615 0.212 1.19 0.369 0.185-0.166 0 0-0.0356-0.332-0.226-0.594-0.547-0.0345-1.07 0.339-1.63 0.27z"/>
</symbol>
<symbol id="github" viewBox="0 0 40 40">
 <path d="m20-4.5e-4c-11 0-20 8.95-20 20 0 8.84 5.73 16.3 13.7 19 1 0.183 1.37-0.435 1.37-0.965 0-0.474-0.0174-1.73-0.0278-3.4-5.56 1.21-6.74-2.68-6.74-2.68-0.91-2.31-2.22-2.92-2.22-2.92-1.82-1.24 0.137-1.22 0.137-1.22 2.01 0.142 3.06 2.06 3.06 2.06 1.78 3.06 4.68 2.17 5.82 1.66 0.182-1.29 0.697-2.17 1.27-2.67-4.44-0.505-9.11-2.22-9.11-9.89 0-2.18 0.78-3.97 2.06-5.37-0.206-0.506-0.893-2.54 0.195-5.29 0 0 1.68-0.538 5.5 2.05 1.59-0.443 3.31-0.665 5.01-0.673 1.7 7e-3 3.41 0.23 5.01 0.673 3.82-2.59 5.49-2.05 5.49-2.05 1.09 2.75 0.405 4.79 0.199 5.29 1.28 1.4 2.06 3.18 2.06 5.37 0 7.68-4.68 9.37-9.13 9.87 0.718 0.618 1.36 1.84 1.36 3.7 0 2.67-0.0244 4.83-0.0244 5.49 0 0.535 0.36 1.16 1.38 0.963 7.94-2.65 13.7-10.1 13.7-19-7e-6 -11-8.96-20-20-20"/>
</symbol>
<symbol id="linkedin" viewBox="0 0 32 32">
 <path d="m25.3 0h-18.7c-3.68 0-6.67 2.99-6.67 6.67v18.7c0 3.68 2.99 6.67 6.67 6.67h18.7c3.68 0 6.67-2.99 6.67-6.67v-18.7c0-3.68-2.98-6.67-6.67-6.67zm-14.7 25.3h-4v-14.7h4zm-2-16.4c-1.29 0-2.33-1.05-2.33-2.35 0-1.3 1.05-2.35 2.33-2.35 1.29 0 2.33 1.05 2.33 2.35 0 1.3-1.04 2.35-2.33 2.35zm18 16.4h-4v-7.47c0-4.49-5.33-4.15-5.33 0v7.47h-4v-14.7h4v2.35c1.86-3.45 9.33-3.7 9.33 3.3z" />
</symbol>
<symbol id="instagram" viewBox="0 0 32 32" >
  <path d="m16 0c-4.35 0-4.89 0.0178-6.6 0.0957-1.7 0.0777-2.87 0.349-3.88 0.744-1.05 0.409-1.94 0.956-2.83 1.85-0.889 0.889-1.44 1.78-1.85 2.83-0.396 1.02-0.666 2.18-0.744 3.88-0.0779 1.71-0.0957 2.25-0.0957 6.6 0 4.35 0.0179 4.89 0.0957 6.6 0.0777 1.7 0.349 2.87 0.744 3.88 0.409 1.05 0.956 1.94 1.85 2.83 0.89 0.889 1.78 1.44 2.83 1.85 1.02 0.395 2.18 0.666 3.88 0.744 1.71 0.0779 2.25 0.0957 6.6 0.0957 4.35 0 4.89-0.0178 6.6-0.0957 1.7-0.0777 2.87-0.349 3.88-0.744 1.05-0.409 1.94-0.956 2.83-1.85 0.889-0.89 1.44-1.78 1.85-2.83 0.395-1.02 0.666-2.18 0.744-3.88 0.0779-1.71 0.0957-2.25 0.0957-6.6 0-4.35-0.0178-4.89-0.0957-6.6-0.0777-1.7-0.349-2.87-0.744-3.88-0.409-1.05-0.956-1.94-1.85-2.83-0.89-0.889-1.78-1.44-2.83-1.85-1.02-0.395-2.18-0.666-3.88-0.744-1.71-0.0779-2.25-0.0957-6.6-0.0957zm0 2.88c4.27 0 4.78 0.0168 6.46 0.0938 1.56 0.0711 2.41 0.332 2.97 0.551 0.747 0.29 1.28 0.637 1.84 1.2 0.56 0.56 0.907 1.09 1.2 1.84 0.219 0.564 0.48 1.41 0.551 2.97 0.077 1.69 0.0938 2.19 0.0938 6.46 0 4.27-0.0168 4.78-0.0938 6.46-0.0711 1.56-0.332 2.41-0.551 2.97-0.29 0.747-0.637 1.28-1.2 1.84-0.56 0.56-1.09 0.907-1.84 1.2-0.564 0.219-1.41 0.48-2.97 0.551-1.69 0.077-2.19 0.0938-6.46 0.0938-4.27 0-4.78-0.0168-6.46-0.0938-1.56-0.0711-2.41-0.332-2.97-0.551-0.747-0.29-1.28-0.637-1.84-1.2-0.56-0.56-0.907-1.09-1.2-1.84-0.219-0.564-0.48-1.41-0.551-2.97-0.077-1.69-0.0938-2.19-0.0938-6.46 0-4.27 0.0168-4.78 0.0938-6.46 0.0712-1.56 0.332-2.41 0.551-2.97 0.29-0.747 0.637-1.28 1.2-1.84 0.56-0.56 1.09-0.907 1.84-1.2 0.564-0.219 1.41-0.48 2.97-0.551 1.69-0.077 2.19-0.0938 6.46-0.0938zm8.54 2.66c-1.06 0-1.92 0.86-1.92 1.92s0.86 1.92 1.92 1.92c1.06 0 1.92-0.86 1.92-1.92s-0.86-1.92-1.92-1.92zm-8.54 2.24c-4.54 0-8.22 3.68-8.22 8.22 0 4.54 3.68 8.22 8.22 8.22 4.54 0 8.22-3.68 8.22-8.22 0-4.54-3.68-8.22-8.22-8.22zm0 2.88c2.95 0 5.33 2.39 5.33 5.33 0 2.95-2.39 5.33-5.33 5.33-2.95 0-5.33-2.39-5.33-5.33 0-2.95 2.39-5.33 5.33-5.33z"/>
</symbol>
<symbol id="patreon" viewBox="0 0 32 32">
  <path d="m0 0.656v30.7h5.62v-30.7zm20.5 0c-6.35 0-11.5 5.17-11.5 11.5 0 6.33 5.17 11.5 11.5 11.5 6.33 0 11.5-5.15 11.5-11.5 0-6.35-5.15-11.5-11.5-11.5z"/>
</symbol>
<symbol id="gitter" viewBox="0 0 32 32">
  <path d="m5.13 0h3.07v20.3h-3.07zm18.7 4.91h3.07v15.4h-3.07zm-12.4 0h3.07v27.1h-3.07zm6.14 0h3.07v27.1h-3.07z" />
</symbol>
<symbol id="youtube" viewBox="0 0 32 32">
  <path d="m26.2 4.25c-4.81-0.328-15.5-0.327-20.3 0-5.2 0.355-5.81 3.49-5.85 11.8 0.0387 8.25 0.645 11.4 5.85 11.8 4.8 0.327 15.5 0.328 20.3 0 5.2-0.355 5.81-3.49 5.85-11.8-0.0387-8.25-0.645-11.4-5.85-11.8zm-14.2 17.1v-10.7l10.7 5.32z" />
</symbol>
<symbol id="medium" viewBox="0 0 32 32">
  <path d="m0.1 0v32h32v-32zm5.36 7.22h6.23l4.82 10.6 4.23-10.6h5.94v0.361l-1.71 1.64c-0.148 0.113-0.222 0.299-0.191 0.482v12.1c-0.0307 0.183 0.0434 0.37 0.191 0.482l1.68 1.64v0.361h-8.43v-0.361l1.74-1.69c0.171-0.171 0.172-0.222 0.172-0.482v-9.77l-4.83 12.3h-0.652l-5.62-12.3v8.22c-0.0469 0.345 0.0673 0.694 0.311 0.943l2.26 2.74v0.359h-6.4v-0.359l2.26-2.74c0.241-0.25 0.349-0.601 0.291-0.943v-9.5c0.0267-0.264-0.0744-0.524-0.271-0.701l-2.01-2.42z"/>
</symbol>
<symbol id="menu" viewBox="0 0 32 32">
  <g class="svg-menu-group">
    <path class="line line-1" d="m4 8v2h24v-2z" />
    <path class="line line-2" d="m4 22v2h24v-2z" />
    <path class="line line-3" d="m4 15v2h24v-2z" />
  </g>
</symbol>
</svg>
